<svg width="129" height="51" viewBox="0 0 129 51" fill="none" xmlns="http://www.w3.org/2000/svg">
<path d="M20.0072 22.992C19.7832 23.856 19.4152 24.752 18.9032 25.68C18.4232 26.608 17.8152 27.488 17.0792 28.32C15.9912 29.568 14.7912 30.4 13.4792 30.816C12.1672 31.232 10.9832 31.44 9.92719 31.44C6.75919 31.44 4.40719 30.224 2.87119 27.792C1.36719 25.36 0.615188 21.856 0.615188 17.28C0.615188 14.88 0.823188 12.64 1.23919 10.56C1.68719 8.48 2.27919 6.672 3.01519 5.136C3.75119 3.568 4.61519 2.336 5.60719 1.44C6.63119 0.543999 7.71919 0.0959988 8.87119 0.0959988H9.87919C10.4552 0.0959988 10.9352 0.175999 11.3192 0.335999C11.7352 0.495998 12.1192 0.703999 12.4712 0.959999C12.8552 1.184 13.2392 1.44 13.6232 1.728C14.0072 1.984 14.4872 2.24 15.0632 2.496C16.0232 2.912 16.6632 3.68 16.9832 4.8C17.3032 5.888 17.4632 7.056 17.4632 8.304C17.4632 8.752 17.4472 9.216 17.4152 9.696C17.4152 10.176 17.3352 10.624 17.1752 11.04C17.0152 11.424 16.7592 11.76 16.4072 12.048C16.0552 12.336 15.5432 12.512 14.8712 12.576C13.9432 12.576 13.3032 12.256 12.9512 11.616C12.5992 10.976 12.4232 10.288 12.4232 9.552C12.4232 9.136 12.4552 8.64 12.5192 8.064C12.5832 7.456 12.6152 6.848 12.6152 6.24C12.6152 5.44 12.4872 4.736 12.2312 4.128C12.0072 3.52 11.5272 3.216 10.7912 3.216C9.60719 3.216 8.63119 3.648 7.86319 4.512C7.12719 5.344 6.53519 6.416 6.08719 7.728C5.67119 9.04 5.36719 10.496 5.17519 12.096C5.01519 13.696 4.93519 15.248 4.93519 16.752C4.93519 18.288 4.96719 19.712 5.03119 21.024C5.12719 22.304 5.33519 23.456 5.65519 24.48C5.97519 25.504 6.43919 26.4 7.04719 27.168C7.65519 27.904 8.50319 28.512 9.59119 28.992C10.0392 29.184 10.5352 29.28 11.0792 29.28C11.8792 29.28 12.6312 29.104 13.3352 28.752C14.0712 28.368 14.7112 27.872 15.2552 27.264C15.7992 26.656 16.2312 25.968 16.5512 25.2C16.8712 24.4 17.0312 23.584 17.0312 22.752C17.0312 21.92 17.1752 21.184 17.4632 20.544C17.7832 19.904 18.2952 19.584 18.9992 19.584C19.5112 19.584 19.8472 19.744 20.0072 20.064C20.1672 20.384 20.2472 20.752 20.2472 21.168C20.2472 21.904 20.1672 22.512 20.0072 22.992ZM40.1398 24.768C40.0758 25.216 39.9158 25.744 39.6598 26.352C39.4038 26.96 39.0678 27.552 38.6518 28.128C38.2678 28.672 37.8038 29.136 37.2598 29.52C36.7478 29.904 36.1718 30.096 35.5318 30.096C34.5718 30.096 33.7238 29.728 32.9878 28.992C32.2838 28.256 31.8518 27.216 31.6918 25.872C31.4998 26.384 31.2758 26.976 31.0198 27.648C30.7638 28.32 30.4438 28.944 30.0598 29.52C29.6758 30.096 29.2278 30.576 28.7158 30.96C28.2358 31.376 27.6598 31.584 26.9878 31.584C26.7958 31.584 26.6518 31.568 26.5558 31.536C26.4598 31.504 26.3478 31.456 26.2198 31.392C26.1238 31.36 25.9958 31.328 25.8358 31.296C25.7078 31.264 25.5158 31.248 25.2598 31.248C24.4918 31.248 23.8358 30.992 23.2918 30.48C22.7798 30 22.3638 29.376 22.0438 28.608C21.7238 27.84 21.4838 27.008 21.3238 26.112C21.1958 25.184 21.1318 24.32 21.1318 23.52C21.1318 21.6 21.2278 19.776 21.4198 18.048C21.6438 16.32 21.9958 14.8 22.4758 13.488C22.9558 12.144 23.5798 11.088 24.3478 10.32C25.1158 9.52 26.0438 9.12 27.1318 9.12C27.7718 9.12 28.2518 9.184 28.5718 9.312C28.9238 9.408 29.2438 9.536 29.5318 9.696C29.8198 9.824 30.1238 9.968 30.4438 10.128C30.7958 10.288 31.2758 10.416 31.8838 10.512C32.5558 10.896 33.0198 11.36 33.2758 11.904C33.5638 12.416 33.7398 12.976 33.8038 13.584C33.8998 14.192 33.9318 14.832 33.8998 15.504C33.8678 16.144 33.8998 16.784 33.9958 17.424C33.9958 17.456 34.0598 17.504 34.1878 17.568C34.3478 17.632 34.5238 17.712 34.7158 17.808C34.9078 17.872 35.0678 17.984 35.1958 18.144C35.3558 18.272 35.4358 18.448 35.4358 18.672V18.864C35.1158 19.696 34.9238 20.432 34.8598 21.072C34.7958 21.712 34.7638 22.48 34.7638 23.376C34.7638 23.824 34.7798 24.32 34.8118 24.864C34.8758 25.376 34.9558 25.872 35.0518 26.352C35.1798 26.8 35.3558 27.184 35.5798 27.504C35.8038 27.792 36.0918 27.936 36.4438 27.936C36.8278 27.936 37.1638 27.744 37.4518 27.36C37.7718 26.976 38.0278 26.544 38.2198 26.064C38.4438 25.552 38.6198 25.04 38.7478 24.528C38.9078 24.016 39.0038 23.632 39.0358 23.376C39.0998 22.992 39.2598 22.8 39.5158 22.8C39.6758 22.8 39.8198 22.896 39.9478 23.088C40.1078 23.248 40.1878 23.552 40.1878 24C40.1878 24.128 40.1878 24.256 40.1878 24.384C40.1878 24.48 40.1718 24.608 40.1398 24.768ZM31.2598 16.992C31.2598 16.64 31.2278 16.224 31.1638 15.744C31.0998 15.264 30.9878 14.816 30.8278 14.4C30.6678 13.984 30.4278 13.632 30.1078 13.344C29.7878 13.056 29.3558 12.912 28.8118 12.912C27.9158 12.912 27.1798 13.328 26.6038 14.16C26.0598 14.96 25.6278 15.92 25.3078 17.04C24.9878 18.128 24.7798 19.264 24.6838 20.448C24.5878 21.6 24.5398 22.512 24.5398 23.184C24.5398 23.696 24.5558 24.32 24.5878 25.056C24.6518 25.76 24.7478 26.432 24.8758 27.072C25.0038 27.712 25.1798 28.256 25.4038 28.704C25.6598 29.152 25.9798 29.376 26.3638 29.376C27.2918 29.376 27.9958 29.024 28.4758 28.32C28.9878 27.584 29.3718 26.688 29.6278 25.632C29.8838 24.544 30.0598 23.392 30.1558 22.176C30.2838 20.928 30.3958 19.792 30.4918 18.768C30.5558 18.224 30.6998 17.888 30.9238 17.76C31.1478 17.6 31.2598 17.488 31.2598 17.424V16.992ZM54.8413 18.192C54.3933 19.056 53.9773 19.968 53.5933 20.928C53.2093 21.888 52.9213 22.64 52.7293 23.184C52.6973 23.344 52.6013 23.68 52.4413 24.192C52.3133 24.704 52.1533 25.28 51.9613 25.92C51.8013 26.528 51.6573 27.136 51.5293 27.744C51.4013 28.352 51.3373 28.848 51.3373 29.232C51.3373 29.392 51.1933 29.536 50.9053 29.664C50.6173 29.792 50.2493 29.856 49.8013 29.856C49.0973 29.856 48.5373 29.76 48.1213 29.568C47.7053 29.376 47.3853 29.072 47.1613 28.656C46.9693 28.208 46.8413 27.632 46.7773 26.928C46.7453 26.224 46.7293 25.376 46.7293 24.384V20.784C46.7293 20.528 46.7133 20.272 46.6813 20.016C46.6813 19.76 46.6333 19.6 46.5373 19.536C46.3773 19.6 46.1693 20.016 45.9133 20.784C45.6893 21.552 45.4653 22.496 45.2413 23.616C45.0493 24.704 44.8733 25.856 44.7133 27.072C44.5533 28.288 44.4733 29.376 44.4733 30.336C44.4733 30.688 44.2813 30.896 43.8973 30.96C43.5453 31.024 43.1453 31.056 42.6973 31.056C42.5693 31.056 42.3453 31.024 42.0253 30.96C41.7373 30.928 41.4333 30.88 41.1133 30.816C40.8253 30.752 40.5533 30.656 40.2973 30.528C40.0413 30.432 39.8813 30.304 39.8173 30.144C39.6573 29.728 39.5293 29.04 39.4333 28.08C39.3693 27.12 39.3373 25.632 39.3373 23.616C39.3373 22.432 39.3533 21.056 39.3853 19.488C39.4493 17.92 39.5133 16.08 39.5773 13.968C39.5773 13.68 39.5613 13.312 39.5293 12.864C39.4973 12.384 39.4813 12.112 39.4813 12.048C39.4813 11.792 39.5773 11.648 39.7693 11.616C39.9933 11.552 40.1533 11.52 40.2493 11.52C40.4733 11.52 40.7293 11.552 41.0173 11.616C41.3373 11.648 41.6413 11.696 41.9293 11.76C42.2493 11.824 42.5373 11.904 42.7933 12C43.0493 12.064 43.2253 12.128 43.3213 12.192V23.76C43.4813 23.12 43.6573 22.384 43.8493 21.552C44.0733 20.688 44.3133 19.84 44.5693 19.008C44.8573 18.176 45.1613 17.408 45.4813 16.704C45.8013 16 46.1373 15.488 46.4893 15.168C46.6173 15.072 46.8573 15.008 47.2093 14.976C47.5613 14.912 47.8493 14.88 48.0733 14.88C48.2333 14.88 48.4253 14.912 48.6493 14.976C48.9053 15.008 49.1453 15.072 49.3693 15.168C49.5933 15.264 49.7853 15.392 49.9453 15.552C50.1373 15.68 50.2493 15.84 50.2813 16.032V23.808V24.24C50.2813 24.432 50.3133 24.528 50.3773 24.528C50.4413 24.528 50.6173 24.096 50.9053 23.232C51.2253 22.368 51.5933 21.344 52.0093 20.16C52.4253 18.976 52.8733 17.76 53.3533 16.512C53.8333 15.264 54.2653 14.272 54.6493 13.536C54.7133 13.408 54.9213 13.344 55.2733 13.344C55.6573 13.312 55.9933 13.296 56.2813 13.296C56.5053 13.296 56.8093 13.376 57.1933 13.536C57.5773 13.664 57.9453 13.856 58.2973 14.112C58.6813 14.368 59.0013 14.656 59.2573 14.976C59.5453 15.296 59.6893 15.632 59.6893 15.984C59.6893 16.048 59.5933 16.24 59.4013 16.56C59.2093 16.848 59.0813 17.152 59.0173 17.472C58.7933 18.368 58.6333 19.248 58.5373 20.112C58.4733 20.976 58.4413 22.08 58.4413 23.424C58.4413 24 58.4573 24.576 58.4893 25.152C58.5533 25.728 58.6333 26.256 58.7293 26.736C58.8573 27.184 59.0173 27.552 59.2093 27.84C59.4013 28.128 59.6573 28.272 59.9773 28.272C60.4253 28.272 60.8253 28.128 61.1773 27.84C61.5293 27.52 61.8333 27.104 62.0893 26.592C62.3453 26.08 62.5693 25.488 62.7613 24.816C62.9533 24.112 63.1133 23.392 63.2413 22.656C63.4013 21.888 63.6893 21.504 64.1053 21.504C64.3613 21.504 64.5213 21.568 64.5853 21.696C64.6813 21.824 64.7293 22.112 64.7293 22.56C64.7293 22.816 64.7133 22.992 64.6813 23.088C64.6493 23.504 64.5053 24.16 64.2493 25.056C64.0253 25.92 63.6893 26.8 63.2413 27.696C62.8253 28.56 62.2973 29.328 61.6573 30C61.0173 30.64 60.2813 30.96 59.4493 30.96C58.4573 30.96 57.6413 30.72 57.0013 30.24C56.3613 29.792 55.8653 29.184 55.5133 28.416C55.1613 27.616 54.9053 26.704 54.7453 25.68C54.6173 24.656 54.5533 23.584 54.5533 22.464V22.128L54.8413 18.192ZM82.4679 24.768C82.4039 25.216 82.2439 25.744 81.9879 26.352C81.7319 26.96 81.3959 27.552 80.9799 28.128C80.5959 28.672 80.1319 29.136 79.5879 29.52C79.0759 29.904 78.4999 30.096 77.8599 30.096C76.8999 30.096 76.0519 29.728 75.3159 28.992C74.6119 28.256 74.1799 27.216 74.0199 25.872C73.8279 26.384 73.6039 26.976 73.3479 27.648C73.0919 28.32 72.7719 28.944 72.3879 29.52C72.0039 30.096 71.5559 30.576 71.0439 30.96C70.5639 31.376 69.9879 31.584 69.3159 31.584C69.1239 31.584 68.9799 31.568 68.8839 31.536C68.7879 31.504 68.6759 31.456 68.5479 31.392C68.4519 31.36 68.3239 31.328 68.1639 31.296C68.0359 31.264 67.8439 31.248 67.5879 31.248C66.8199 31.248 66.1639 30.992 65.6199 30.48C65.1079 30 64.6919 29.376 64.3719 28.608C64.0519 27.84 63.8119 27.008 63.6519 26.112C63.5239 25.184 63.4599 24.32 63.4599 23.52C63.4599 21.6 63.5559 19.776 63.7479 18.048C63.9719 16.32 64.3239 14.8 64.8039 13.488C65.2839 12.144 65.9079 11.088 66.6759 10.32C67.4439 9.52 68.3719 9.12 69.4599 9.12C70.0999 9.12 70.5799 9.184 70.8999 9.312C71.2519 9.408 71.5719 9.536 71.8599 9.696C72.1479 9.824 72.4519 9.968 72.7719 10.128C73.1239 10.288 73.6039 10.416 74.2119 10.512C74.8839 10.896 75.3479 11.36 75.6039 11.904C75.8919 12.416 76.0679 12.976 76.1319 13.584C76.2279 14.192 76.2599 14.832 76.2279 15.504C76.1959 16.144 76.2279 16.784 76.3239 17.424C76.3239 17.456 76.3879 17.504 76.5159 17.568C76.6759 17.632 76.8519 17.712 77.0439 17.808C77.2359 17.872 77.3959 17.984 77.5239 18.144C77.6839 18.272 77.7639 18.448 77.7639 18.672V18.864C77.4439 19.696 77.2519 20.432 77.1879 21.072C77.1239 21.712 77.0919 22.48 77.0919 23.376C77.0919 23.824 77.1079 24.32 77.1399 24.864C77.2039 25.376 77.2839 25.872 77.3799 26.352C77.5079 26.8 77.6839 27.184 77.9079 27.504C78.1319 27.792 78.4199 27.936 78.7719 27.936C79.1559 27.936 79.4919 27.744 79.7799 27.36C80.0999 26.976 80.3559 26.544 80.5479 26.064C80.7719 25.552 80.9479 25.04 81.0759 24.528C81.2359 24.016 81.3319 23.632 81.3639 23.376C81.4279 22.992 81.5879 22.8 81.8439 22.8C82.0039 22.8 82.1479 22.896 82.2759 23.088C82.4359 23.248 82.5159 23.552 82.5159 24C82.5159 24.128 82.5159 24.256 82.5159 24.384C82.5159 24.48 82.4999 24.608 82.4679 24.768ZM73.5879 16.992C73.5879 16.64 73.5559 16.224 73.4919 15.744C73.4279 15.264 73.3159 14.816 73.1559 14.4C72.9959 13.984 72.7559 13.632 72.4359 13.344C72.1159 13.056 71.6839 12.912 71.1399 12.912C70.2439 12.912 69.5079 13.328 68.9319 14.16C68.3879 14.96 67.9559 15.92 67.6359 17.04C67.3159 18.128 67.1079 19.264 67.0119 20.448C66.9159 21.6 66.8679 22.512 66.8679 23.184C66.8679 23.696 66.8839 24.32 66.9159 25.056C66.9799 25.76 67.0759 26.432 67.2039 27.072C67.3319 27.712 67.5079 28.256 67.7319 28.704C67.9879 29.152 68.3079 29.376 68.6919 29.376C69.6199 29.376 70.3239 29.024 70.8039 28.32C71.3159 27.584 71.6999 26.688 71.9559 25.632C72.2119 24.544 72.3879 23.392 72.4839 22.176C72.6119 20.928 72.7239 19.792 72.8199 18.768C72.8839 18.224 73.0279 17.888 73.2519 17.76C73.4759 17.6 73.5879 17.488 73.5879 17.424V16.992ZM96.9774 31.248C96.9774 31.568 96.8334 31.792 96.5454 31.92C96.2574 32.048 95.9854 32.112 95.7294 32.112L94.7694 32.016C94.6094 32.016 94.5294 32.112 94.5294 32.304L94.4814 32.88C94.5134 33.744 94.5294 34.832 94.5294 36.144C94.5294 37.456 94.5294 38.72 94.5294 39.936C94.5294 41.216 94.4814 42.464 94.3854 43.68C94.3214 44.928 94.1454 46.032 93.8574 46.992C93.5694 47.984 93.1534 48.768 92.6094 49.344C92.0974 49.952 91.3774 50.256 90.4494 50.256C89.6494 50.256 88.8014 50.208 87.9054 50.112C87.0414 50.048 86.2414 49.856 85.5054 49.536C84.8014 49.216 84.2094 48.736 83.7294 48.096C83.2814 47.488 83.0574 46.656 83.0574 45.6C83.0574 44.544 83.1694 43.456 83.3934 42.336C83.6494 41.248 84.0014 40.176 84.4494 39.12C84.8974 38.096 85.4254 37.104 86.0334 36.144C86.6734 35.216 87.3614 34.384 88.0974 33.648C88.4814 33.264 88.8974 32.864 89.3454 32.448C89.8254 32.064 90.2414 31.744 90.5934 31.488V31.44C90.6574 30.768 90.7054 30.096 90.7374 29.424C90.7694 28.752 90.7854 28.064 90.7854 27.36C90.6254 27.648 90.4334 28.048 90.2094 28.56C89.9854 29.04 89.7134 29.504 89.3934 29.952C89.1054 30.4 88.7694 30.784 88.3854 31.104C88.0014 31.456 87.5694 31.632 87.0894 31.632C86.8334 31.632 86.6094 31.584 86.4174 31.488C86.2254 31.392 85.9534 31.344 85.6014 31.344C84.7054 31.28 83.9534 31.04 83.3454 30.624C82.7694 30.208 82.3054 29.632 81.9534 28.896C81.6334 28.16 81.4094 27.296 81.2814 26.304C81.1534 25.28 81.0894 24.144 81.0894 22.896C81.0894 21.392 81.1694 19.84 81.3294 18.24C81.5214 16.64 81.8414 15.184 82.2894 13.872C82.7374 12.528 83.3294 11.44 84.0654 10.608C84.8334 9.744 85.7934 9.312 86.9454 9.312C87.0734 9.312 87.2334 9.36 87.4254 9.456C87.6494 9.552 87.8734 9.664 88.0974 9.792C88.3534 9.888 88.5934 10 88.8174 10.128C89.0734 10.224 89.2654 10.288 89.3934 10.32C90.0334 10.448 90.6254 10.608 91.1694 10.8C91.7134 10.992 92.1774 11.248 92.5614 11.568C92.9454 11.856 93.2494 12.256 93.4734 12.768C93.6974 13.248 93.8094 13.856 93.8094 14.592C93.8094 15.104 93.7614 15.568 93.6654 15.984C93.6014 16.4 93.5694 16.928 93.5694 17.568C93.5694 17.824 93.6654 18 93.8574 18.096C94.0494 18.192 94.2574 18.272 94.4814 18.336C94.7374 18.4 94.9614 18.48 95.1534 18.576C95.3454 18.64 95.4414 18.8 95.4414 19.056C95.4414 19.12 95.3614 19.28 95.2014 19.536C95.0734 19.76 94.9934 19.904 94.9614 19.968C94.8654 20.224 94.7854 20.64 94.7214 21.216C94.6574 21.76 94.6094 22.368 94.5774 23.04C94.5454 23.68 94.5134 24.352 94.4814 25.056C94.4814 25.728 94.4814 26.336 94.4814 26.88C94.4814 27.296 94.4814 27.856 94.4814 28.56C94.4814 29.232 94.4974 29.792 94.5294 30.24H94.7214C94.7854 30.24 94.8494 30.224 94.9134 30.192C94.9774 30.192 95.0254 30.192 95.0574 30.192C95.3454 30.192 95.7294 30.272 96.2094 30.432C96.7214 30.624 96.9774 30.896 96.9774 31.248ZM90.8334 16.416C90.8334 16.064 90.8014 15.664 90.7374 15.216C90.6734 14.768 90.5614 14.352 90.4014 13.968C90.2414 13.552 90.0014 13.216 89.6814 12.96C89.3934 12.672 89.0254 12.528 88.5774 12.528C87.9694 12.528 87.3934 12.768 86.8494 13.248C86.3374 13.728 85.8734 14.416 85.4574 15.312C85.0734 16.176 84.7534 17.248 84.4974 18.528C84.2734 19.776 84.1614 21.2 84.1614 22.8C84.1614 23.472 84.1774 24.176 84.2094 24.912C84.2734 25.616 84.3534 26.256 84.4494 26.832C84.5774 27.408 84.7534 27.888 84.9774 28.272C85.2334 28.656 85.5534 28.848 85.9374 28.848C86.6094 28.848 87.2014 28.56 87.7134 27.984C88.2254 27.408 88.6414 26.704 88.9614 25.872C89.3134 25.008 89.5694 24.128 89.7294 23.232C89.9214 22.304 90.0334 21.504 90.0654 20.832C90.0974 19.904 90.1454 19.28 90.2094 18.96C90.2734 18.608 90.3374 18.384 90.4014 18.288C90.5934 18.032 90.7054 17.728 90.7374 17.376C90.8014 17.024 90.8334 16.704 90.8334 16.416ZM90.6414 33.12C89.9054 33.632 89.2014 34.352 88.5294 35.28C87.8894 36.208 87.3294 37.216 86.8494 38.304C86.3694 39.392 85.9854 40.496 85.6974 41.616C85.4414 42.736 85.3134 43.744 85.3134 44.64C85.3134 44.96 85.3454 45.312 85.4094 45.696C85.4734 46.08 85.5694 46.432 85.6974 46.752C85.8574 47.104 86.0654 47.392 86.3214 47.616C86.6094 47.84 86.9454 47.952 87.3294 47.952C88.0014 47.952 88.5454 47.664 88.9614 47.088C89.4094 46.544 89.7454 45.888 89.9694 45.12C90.2254 44.352 90.3854 43.568 90.4494 42.768C90.5454 41.968 90.5934 41.328 90.5934 40.848C90.5934 40.752 90.5934 40.608 90.5934 40.416C90.5934 40.224 90.5934 39.856 90.5934 39.312C90.6254 38.768 90.6414 38 90.6414 37.008C90.6414 36.048 90.6414 34.752 90.6414 33.12ZM111.308 23.232C111.308 23.456 111.228 24 111.068 24.864C110.94 25.696 110.684 26.592 110.3 27.552C109.948 28.48 109.452 29.312 108.812 30.048C108.204 30.784 107.42 31.152 106.46 31.152C105.436 31.152 104.62 30.784 104.012 30.048C103.404 29.344 102.94 28.496 102.62 27.504C102.3 26.48 102.092 25.424 101.996 24.336C101.9 23.216 101.852 22.288 101.852 21.552C101.852 20.72 101.9 19.888 101.996 19.056C102.092 18.192 102.156 17.344 102.188 16.512C102.188 16.256 102.06 16.096 101.804 16.032C101.548 15.968 101.308 15.936 101.084 15.936C100.7 15.936 100.46 15.984 100.364 16.08C100.268 16.176 100.204 16.288 100.172 16.416L99.9804 17.952C99.8524 18.976 99.7084 19.968 99.5484 20.928C99.4204 21.856 99.2604 22.688 99.0684 23.424C98.9084 24.128 98.7004 24.704 98.4444 25.152C98.2204 25.568 97.9484 25.776 97.6284 25.776H97.5804C97.4524 25.776 97.3244 25.744 97.1964 25.68C97.1004 25.616 97.0524 25.456 97.0524 25.2C97.0524 25.072 97.0844 24.88 97.1484 24.624C97.4044 23.504 97.5644 22.576 97.6284 21.84C97.6924 21.104 97.7404 20.448 97.7724 19.872V19.536C97.7724 19.376 97.7724 19.184 97.7724 18.96C97.8044 18.736 97.8204 18.464 97.8204 18.144V16.896C97.8204 16.544 97.8204 16.176 97.8204 15.792C97.8204 15.408 97.7884 14.992 97.7244 14.544L97.5804 11.712C97.5804 11.52 97.6604 11.344 97.8204 11.184C97.9804 11.024 98.1884 10.88 98.4444 10.752C98.7004 10.624 98.9724 10.528 99.2604 10.464C99.5484 10.4 99.8044 10.368 100.028 10.368C100.572 10.368 100.844 10.72 100.844 11.424V11.664L100.796 12.72V13.008C100.796 13.232 100.844 13.376 100.94 13.44C101.036 13.472 101.228 13.52 101.516 13.584H101.66C101.916 13.616 102.332 13.648 102.908 13.68C103.484 13.712 104.06 13.776 104.636 13.872C105.212 13.968 105.708 14.128 106.124 14.352C106.572 14.544 106.796 14.832 106.796 15.216C106.796 15.344 106.764 15.536 106.7 15.792C106.636 16.016 106.556 16.256 106.46 16.512C106.364 16.736 106.284 16.944 106.22 17.136C106.156 17.328 106.124 17.456 106.124 17.52C105.548 19.728 105.26 22.032 105.26 24.432C105.26 24.624 105.276 24.976 105.308 25.488C105.34 26 105.404 26.528 105.5 27.072C105.596 27.616 105.74 28.096 105.932 28.512C106.124 28.928 106.364 29.136 106.652 29.136C107.132 29.136 107.564 28.848 107.948 28.272C108.332 27.664 108.668 26.976 108.956 26.208C109.244 25.408 109.468 24.608 109.628 23.808C109.82 23.008 109.948 22.416 110.012 22.032C110.076 21.68 110.172 21.472 110.3 21.408C110.46 21.312 110.604 21.264 110.732 21.264C111.18 21.264 111.404 21.552 111.404 22.128C111.404 22.192 111.388 22.368 111.356 22.656C111.356 22.912 111.34 23.104 111.308 23.232ZM121.577 27.792C120.937 27.152 120.409 26.176 119.993 24.864C119.897 25.056 119.769 25.472 119.609 26.112C119.481 26.752 119.273 27.424 118.985 28.128C118.697 28.8 118.313 29.424 117.833 30C117.385 30.544 116.809 30.816 116.105 30.816C114.057 30.816 112.649 30.224 111.881 29.04C111.113 27.856 110.665 26.112 110.537 23.808V12.24C110.601 12.016 110.633 11.856 110.633 11.76C110.665 11.664 110.809 11.616 111.065 11.616C111.225 11.616 111.497 11.648 111.881 11.712C112.297 11.776 112.713 11.872 113.129 12C113.545 12.096 113.913 12.24 114.233 12.432C114.585 12.624 114.761 12.848 114.761 13.104V21.6C114.761 22.176 114.761 22.816 114.761 23.52C114.793 24.224 114.841 24.88 114.905 25.488C115.001 26.064 115.145 26.56 115.337 26.976C115.529 27.36 115.801 27.552 116.153 27.552C117.081 27.552 117.801 26.624 118.313 24.768C118.825 22.88 119.113 19.92 119.177 15.888C119.177 15.632 119.113 15.376 118.985 15.12C118.857 14.864 118.793 14.56 118.793 14.208C118.857 13.952 119.113 13.792 119.561 13.728C120.041 13.664 120.473 13.632 120.857 13.632C121.817 13.632 122.521 13.728 122.969 13.92C123.417 14.112 123.641 14.688 123.641 15.648C123.577 16.224 123.513 16.688 123.449 17.04C123.417 17.36 123.385 17.664 123.353 17.952C123.353 18.208 123.337 18.496 123.305 18.816C123.305 19.104 123.305 19.536 123.305 20.112C123.305 20.848 123.337 21.616 123.401 22.416C123.465 23.216 123.577 23.952 123.737 24.624C123.897 25.296 124.089 25.856 124.313 26.304C124.569 26.72 124.889 26.928 125.273 26.928C125.625 26.928 125.897 26.832 126.089 26.64C126.281 26.416 126.457 26.176 126.617 25.92C126.777 25.664 126.937 25.44 127.097 25.248C127.257 25.024 127.481 24.912 127.769 24.912C128.025 24.912 128.217 25.008 128.345 25.2C128.473 25.36 128.537 25.52 128.537 25.68C128.537 26.288 128.377 26.8 128.057 27.216C127.769 27.632 127.401 27.968 126.953 28.224C126.537 28.48 126.105 28.672 125.657 28.8C125.209 28.896 124.841 28.944 124.553 28.944C124.009 28.944 123.545 28.88 123.161 28.752C122.777 28.624 122.393 28.432 122.009 28.176L121.577 27.792Z" fill="black"/>
</svg>
